PathFileType	4	(X/Y/Z)	Patient4_TMGait_0pt2_01_right_11.trc.trc
DataRate	CameraRate	NumFrames	NumMarkers	Units	OrigDataRate	OrigDataStartFrame	OrigNumFrames
43.076923076923	43.076923076923	5	33	mm	43.076923076923	71	       141
Frame#	Time	Sacral			L.Shoulder			Chest			R.Shoulder			Neck			R.ASIS			L.ASIS			R.Thigh.Superior			R.Thigh.Lateral			R.Thigh.Inferior			R.Patella			L.Thigh.Superior			L.Thigh.Lateral			L.Thigh.Inferior			L.Patella			L.Shank.Superior			L.Shank.Lateral			L.Shank.Inferior			R.Shank.Superior			R.Shank.Lateral			R.Shank.Inferior			R.Heel			R.Midfoot.Superior			R.Midfoot.Lateral			R.Toe			L.Heel			L.Midfoot.Lateral			L.Midfoot.Superior			L.Toe			L.Elbow			L.Wrist			R.Elbow			R.Wrist			
		X1	Y1	Z1	X2	Y2	Z2	X3	Y3	Z3	X4	Y4	Z4	X5	Y5	Z5	X6	Y6	Z6	X7	Y7	Z7	X8	Y8	Z8	X9	Y9	Z9	X10	Y10	Z10	X11	Y11	Z11	X12	Y12	Z12	X13	Y13	Z13	X14	Y14	Z14	X15	Y15	Z15	X16	Y16	Z16	X17	Y17	Z17	X18	Y18	Z18	X19	Y19	Z19	X20	Y20	Z20	X21	Y21	Z21	X22	Y22	Z22	X23	Y23	Z23	X24	Y24	Z24	X25	Y25	Z25	X26	Y26	Z26	X27	Y27	Z27	X28	Y28	Z28	X29	Y29	Z29	X30	Y30	Z30	X31	Y31	Z31	X32	Y32	Z32	X33	Y33	Z33	

71	25.145000000000	784.072588812996	1004.491813743385	561.722359655737	924.795787733604	1421.308247116277	334.529582157904	1058.302751043786	1357.350272048293	473.821594913156	1013.708259148182	1439.260613607815	656.675820576630	939.987663529033	1489.054871667207	487.362506810656	1026.854462839684	933.381404117812	637.409732592425	968.637977841885	958.182878416712	369.151943771427	1036.879784140938	723.967132345588	595.512246416386	951.320784293292	618.673943267928	661.797531779835	1006.158714007392	564.235413133875	569.219517509011	993.913794335029	475.768328163175	572.844643463824	1047.191277584213	766.608585073410	397.047837971704	985.049747838581	639.846216593567	326.544254872383	1084.041439801655	578.338228266459	387.823384964148	1101.179047038332	511.348034703139	387.443242611289	1084.361250089393	438.429615710741	373.658518066387	1015.709699019843	312.943445214106	312.514832101957	1093.486543930015	206.995993935567	371.166331769378	953.843109126516	389.588451621633	579.772861121415	873.085678297591	293.540380019172	643.458819445906	895.015111825942	198.080668939826	573.508095392908	738.743778004761	42.851355920674	544.662433754948	911.432212497688	96.266053546512	579.730722350308	821.905214584064	36.999154134939	619.194637115562	1029.944960087204	43.358353885652	609.111576295517	993.709106727804	35.252921516833	396.998766299895	1074.761284395003	34.900272558400	323.408011994371	1150.387121481909	105.923131347615	352.363930810221	1283.715512441274	65.605328318780	336.781995390812	782.970756689487	1095.853021564045	259.273827168220	741.227062567125	839.451174352814	287.419496548571	1208.849734019142	1167.719649107246	763.973639685865	1409.422619877747	1279.663009594802	658.337322377802	
72	25.168214285714	785.725439970046	1004.581756019644	559.505692797235	925.754386912641	1421.023939904057	331.497963974390	1060.056290195597	1356.875581515311	469.985465137890	1016.460957582026	1438.701752326890	653.018451300572	941.743374091516	1488.701900391473	484.326534266018	1028.798516467053	932.801214135533	634.207222023147	969.259225130898	957.593445705097	366.262307426657	1036.613589730443	722.907694906884	592.915712107062	950.256702536889	618.374103624209	659.769703118365	1004.136273566283	563.235263396951	567.237171379165	990.908927168539	475.091720264261	571.134792855852	1046.620731059383	764.566155668686	392.871165595531	981.241917161933	638.103112322386	324.237896086936	1080.674916084028	575.996572645116	383.951634402137	1096.076764271420	509.421617342151	384.518960244771	1080.273851368126	436.751902166145	371.004945157505	1012.051281210922	310.987775219202	311.004352129729	1090.341277043036	205.940370482347	369.935537988091	950.531727898532	389.193814360122	578.487971932437	869.441930405090	293.718749696479	642.746459259405	890.830000021198	197.944094900876	573.093529955287	734.044039077848	42.905750498954	544.687193930375	906.778826096488	96.251844809756	579.640962885807	817.221332344634	36.995823641296	619.190135737061	1025.254446496656	43.330562246914	609.082697164076	990.935899154451	35.659018512776	397.211517571274	1071.031873256747	35.127827543145	322.711773104957	1147.206602817849	104.969591268450	351.380502603254	1279.655993817063	63.653029104095	334.401260067660	785.698585922366	1094.697698023450	257.145122559818	745.128732653822	837.922162122750	285.108261031157	1216.047041194446	1170.412733338220	756.871400523128	1408.865250186772	1291.241734032299	647.789744184707	
73	25.191428571429	787.508114280830	1004.673983678896	556.948141331492	927.004595202144	1420.658749460215	328.132934715839	1062.002215167216	1356.396035691286	465.931687487335	1019.251000041737	1438.143497787811	649.118108257992	943.629538324429	1488.334331942567	480.924478701387	1030.871246451506	932.254753687174	630.880755015086	970.208786909565	957.019318670751	363.210911017467	1036.656001712169	721.872863830955	590.284679393992	949.446591028129	618.075376952481	657.587001128413	1002.521136901017	562.241933455783	565.191751104451	988.353421423297	474.348984491887	569.348061832162	1046.689361130377	762.909086704742	389.054740207483	978.733201943623	636.655601766076	322.086717859030	1078.423932421136	574.051626179470	380.626765488569	1092.272829058695	507.651103490187	381.975155364347	1077.040556179412	435.129361332943	368.698316095771	1008.523090455078	309.520897214271	309.802368594224	1086.620712336513	204.911302290415	369.047784304512	947.551593974979	388.787367408466	577.117811731013	866.032221123317	293.987497287028	641.961983726165	886.797047658650	197.850756898033	572.633131330063	729.383758285217	43.084460252380	544.701795287020	902.170381966695	96.234333467358	579.512823997794	812.574359291161	37.052043421700	619.165150507818	1020.595481716407	43.230262824376	609.067342626522	986.563219150915	36.408043082386	397.775934514904	1065.681199058433	35.555612710771	322.296191036613	1142.723608032740	103.953707557924	350.710249522993	1274.207220680373	61.230400786704	332.153383289792	789.161158637706	1093.195470571658	254.396577482243	750.302588221626	836.018217823001	282.142924576994	1222.208840440532	1172.333715671186	749.859702314805	1407.868889389457	1300.326279222938	637.709935451701	
74	25.214642857143	789.365446989917	1004.827440250414	554.076095402342	928.520839882396	1420.294239274772	324.525482277223	1064.126354253991	1355.950879897594	461.728884309356	1022.101658326443	1437.624741302687	645.054373534181	945.649504336696	1488.006212896926	477.255984095194	1032.986811479831	931.764283937888	627.440795157663	971.432258633422	956.548834108047	359.999650319071	1036.902799227177	720.901680787346	587.620000280949	948.797811347688	617.826629953708	655.276072611443	1001.221483051157	561.297954397768	563.109812093110	986.163504698178	473.587183261770	567.520965759021	1047.331319260139	761.722060912471	385.646582104501	977.525101618982	635.577033535230	320.021245465371	1077.241633609227	572.560797860026	377.839604693731	1089.773809797421	506.132654299115	379.814839820524	1074.741298080314	433.651749752159	366.744680543891	1005.441351063387	308.477093311887	308.769239503690	1082.745850664109	203.911350249875	368.453932854464	944.842708783785	388.406590115347	575.692539387258	862.802412063671	294.372761010770	641.111553578152	882.899589561671	197.830224017529	572.137217049758	724.771260840744	43.420389299048	544.700845398825	897.619511931788	96.223257105714	579.349810458082	807.970172365876	37.191108795256	619.117301782497	1015.971490144851	43.051580544922	609.068591335949	981.258332238910	37.223868183140	398.481724870384	1059.512782635616	35.996376094127	322.089959050799	1137.559490767906	102.910754765883	350.350112017387	1268.144543325354	58.655141158279	330.284862651695	793.124322711692	1091.566906729242	251.060049504745	756.473479937843	833.972384458446	278.532746849215	1227.506751810975	1173.573056666755	742.992761595031	1406.748515277999	1307.186605249411	628.076564121179	
75	25.237857142857	791.248246311523	1005.078061504239	550.913283093153	930.275763857487	1419.998827990562	320.765161142769	1066.401408734612	1355.571394151886	457.455678706114	1025.001825979238	1437.169812104570	640.912226814548	947.793341113407	1487.758651098691	473.425313245103	1035.060157211524	931.347621525251	623.912277169138	972.883840021536	956.234879882262	356.644381560006	1037.243168997680	720.027663821525	584.939417620279	948.209967226084	617.672590747407	652.877851172248	1000.135320241058	560.441072331475	561.030853739031	984.241341364590	472.856199844539	565.699909098162	1048.460992246810	761.024726197693	382.637390741812	977.504533322734	634.877452482509	317.978720209095	1077.016203465297	571.517789032794	375.518616808484	1088.488228482750	504.904379124474	378.000412886332	1073.352616098586	432.366520640935	365.116321967550	1002.979984274076	307.788174188420	307.796280824320	1078.998776825117	202.954337997016	368.091020670929	942.335783793608	388.088610301384	574.250759694744	859.690495993867	294.894402293662	640.208735770900	879.114112686206	197.908385067134	571.621596975899	720.212367846804	43.943878078762	544.680365392108	893.137985088180	96.231920876913	579.164706067029	803.411892968683	37.435662045617	619.046882183000	1011.383836872510	42.793465963067	609.088195018572	975.550269302349	37.934592333100	399.168596725564	1053.132820538430	36.345179772719	322.023678580432	1132.172439482918	101.892159853718	350.261919797317	1262.018115639439	56.192650232455	328.920037095549	797.384936664594	1090.002680857146	247.191155232278	763.364832952645	831.985256810540	274.312308905584	1232.101335496902	1174.247361894642	736.309487990107	1405.761641857991	1312.122787585243	618.877270045596	
